<svg width="1920" height="580" viewBox="0 0 1920 580" fill="none" xmlns="http://www.w3.org/2000/svg">
<path d="M512.932 0.598649C513.843 0.409603 514.752 0.20417 515.672 0C515.701 17.7716 515.776 35.5432 515.691 53.2997C515.419 59.5911 516.714 65.6633 516.751 71.8754C515.654 80.5173 515.531 89.3483 516.001 98.115C520.158 98.3834 524.183 100.165 528.218 101.742C528.509 105.29 528.706 108.838 528.94 112.402C530.826 113.915 532.712 115.398 534.598 116.959C535.462 143.797 532.22 411.531 537.16 437.14C539.872 449.661 538.173 463.239 538.464 476.248C539.647 476.233 540.838 476.216 542.039 476.2C542.581 461.15 544.793 476.797 544.619 416.907C547.115 416.513 549.611 416.15 552.116 415.725C552.313 412.887 552.538 410.064 552.792 407.257C555.288 407.32 557.783 407.337 560.289 407.32C560.983 412.618 563.188 416.277 566.341 417.413C566.622 430.486 566.162 443.574 566.65 456.646C567.279 456.63 568.555 456.598 569.184 456.567C569.155 421.354 569.184 386.142 569.371 350.929C579.608 350.203 589.873 350.314 600.11 351.166C600.488 381.314 598.383 380.25 604.737 386.615C606.182 200.165 601.057 241.566 612.225 225.812C612.966 212.046 611.671 198.122 612.657 184.37C614.092 178.726 616.335 173.694 617.648 167.907C618.642 171.077 619.628 174.278 620.632 177.463C626.205 177.148 631.78 177.352 637.353 177.526C637.484 180.175 637.615 182.84 637.756 185.49C638.563 185.473 639.38 185.458 640.196 185.442C640.458 182.65 640.74 179.86 641.05 177.068C642.392 177.037 643.753 177.02 645.113 176.974C645.702 194.477 644.764 278.019 645.292 312.658C647.75 312.769 650.218 312.721 652.686 312.643C652.808 341.17 652.254 369.713 652.93 398.207C655.885 398.286 658.841 398.207 661.806 398.128C661.929 403.268 662.031 408.409 662.144 413.55C664.706 413.707 667.276 413.77 669.848 413.833C666.568 396.344 669.68 412.02 668.074 327.67C669.416 291.212 667.211 254.628 668.59 218.216C682.693 217.838 696.805 218.121 710.918 217.916C711.978 239.993 710.496 262.118 711.012 284.21C714.971 284.967 718.706 282.664 722.506 281.308C739.342 287.728 735.335 283.545 735.436 315.26C742.22 314.928 749.013 314.991 755.788 315.795C755.844 318.145 755.919 320.495 755.994 322.844C764.684 332.559 760.083 329.99 769.149 331.375C769.273 395.059 768.06 396.896 771.335 397.78C772.03 366.399 771.148 334.971 771.589 303.591C778.279 302.171 784.275 295.943 790.974 294.934C798.583 297.583 806.362 296.747 814.075 296.921C814.413 323.177 813.869 349.448 814.394 375.688C819.677 374.208 814.637 260.397 816.834 227.992C817.583 227.692 836.646 220.042 838.912 217.49C839.925 214.4 840.638 211.073 841.483 207.84C842.496 210.252 843.519 212.649 844.57 215.046C856.149 213.312 867.737 214.778 879.335 214.967C879.992 258.001 879.054 301.099 879.56 344.136C882.59 344.341 885.63 344.467 888.671 344.719C888.849 347.732 889.027 350.759 889.224 353.787C896.252 354.087 903.29 354.15 910.327 353.802C910.308 343.174 909.923 332.546 910.383 321.933C914.906 322.076 919.447 322.202 923.979 321.712C924.064 313.56 923.576 305.249 924.815 297.27C926.241 288.156 926.016 278.473 927.845 269.5C929.853 263.227 929.82 269.65 937.641 236.827C939.565 229.337 938.645 220.947 939.696 213.142C940.297 208.696 940.785 204.217 941.16 199.691C942.633 202.955 943.515 206.803 943.308 210.965C942.53 235.729 951.03 255.312 954.39 267.103C957.806 286.218 957.247 281.151 957.149 384.71C959.045 384.742 960.95 384.758 962.873 384.758C963.136 353.598 963.117 322.438 963.108 291.279C962.986 284.876 964.815 278.963 964.909 272.592C965.04 266.427 964.749 260.119 965.838 254.126C967.537 245.248 966.73 235.834 967.124 226.703C967.049 222.824 969.16 220.458 970.267 217.431C972.867 211.675 971.853 203.412 974.63 197.877C978.28 190.654 977.727 180.484 979.153 171.81C981.124 161.182 980.007 149.939 980.157 139.011C980.345 139.027 980.729 139.059 980.918 139.074C980.217 194.121 983.152 178.723 977.352 194.692C980.242 195.639 983.17 196.332 986.115 196.79C986.932 202.403 987.72 208.018 988.611 213.6C989.399 218.331 992.589 221.342 992.327 226.656C992.355 232.003 992.664 237.364 993.697 242.473C1002.21 239.209 1011.08 239.745 1019.73 240.849C1024.75 254 1031.74 264.691 1039.03 274.28C1039.06 274.942 1039.1 383.999 1039.1 384.664C1042.77 384.821 1046.6 383.639 1050.14 385.894C1055.47 389.347 1061.27 386.95 1066.84 387.833C1068.24 384.758 1069.68 381.762 1071.24 378.876C1073.65 382.046 1076.25 385.294 1079.5 384.916C1079.8 278.205 1076.1 260.312 1092.78 254.801C1092.77 251.191 1092.76 247.579 1092.76 243.968C1094.38 242.234 1095.99 240.404 1097.78 239.142C1100.23 242.942 1098.42 249.329 1099.6 254.06C1100.33 256.741 1101.28 259.216 1102.03 261.898C1103.21 265.841 1103.37 271.47 1106.59 272.022C1107.62 269.814 1107.99 265.651 1110.1 265.746C1124.91 264.205 1115.63 267.693 1132.85 272.022C1132.86 280.127 1132.84 288.249 1132.87 296.354C1136.66 296.858 1140.46 297.032 1144.27 297.095C1144.64 319.835 1144.18 342.589 1144.47 365.344C1146.31 366.59 1148.16 367.867 1150.02 369.176C1150.46 379.852 1150.28 390.559 1150.52 401.266C1151.58 401.249 1152.65 401.234 1153.73 401.234C1158.49 366.588 1158.29 372.265 1180.41 372.66C1181.72 372.897 1183.52 372.503 1184.1 375.073C1187.41 388.792 1191.45 402.496 1191.61 417.65C1191.52 423.09 1195.32 426.103 1195.02 431.653C1195.07 465.447 1194.67 499.256 1195.23 533.048C1198.4 533.191 1201.58 533.191 1204.77 533.048C1204.96 518.32 1204.51 503.56 1204.99 488.847C1208.62 488.563 1212.26 488.484 1215.9 488.389C1216.02 483.375 1216.17 478.376 1216.39 473.377C1220.52 473.425 1224.64 473.408 1228.78 473.503C1229.18 550.17 1227.57 551.638 1231.16 552.269C1231.9 528.664 1231.3 370.873 1231.32 370.709C1233.67 363.645 1239.08 366.61 1242.95 364.97C1252.25 359.871 1261.6 362.839 1264.42 366.058C1266.6 368.077 1267.82 371.86 1269.06 375.33C1278.62 374.305 1288.18 376.119 1297.75 375.771C1299.15 384.045 1298.52 427.794 1298.49 429.055C1304.66 428.535 1310.85 429.024 1317.03 428.661C1317.51 423.52 1318.03 418.396 1318.79 413.349C1321.9 419.657 1321.3 429.103 1324.86 434.922C1329.66 445.565 1327.88 428.492 1328.43 526.841C1333.8 527.835 1338.54 522.553 1343.87 522.742C1344.35 498.259 1343.12 407.786 1343.8 368.908C1349.28 368.341 1354.78 368.814 1360.24 369.933C1362.07 366.085 1363.84 362.127 1365.51 358.043C1368.89 361.828 1372.85 363.436 1376.9 363.247C1377.18 365.313 1377.47 367.379 1377.79 369.461C1381.92 369.54 1386.07 369.886 1390.21 370.533C1390.69 379.396 1390.63 388.289 1390.43 397.167C1397.07 397.23 1402.8 403.916 1409.41 404.674C1410.66 407.654 1412.34 409.988 1414.32 411.565C1415.32 422.824 1414.78 434.179 1414.8 445.5C1422.97 444.87 1431.13 443.844 1439.31 444.711C1439.77 423.114 1439.01 324.164 1439.54 274.33C1445.06 273.935 1450.61 274.046 1456.15 273.998C1456.1 264.6 1456.79 255.249 1456.65 245.866C1462.68 245.471 1468.73 245.803 1474.77 245.66C1477.04 232.742 1474.56 234.958 1484.03 233.045C1484.18 207.624 1483.49 182.048 1485.09 156.737C1487.15 164.087 1486.58 207.566 1486.69 232.493C1490.03 233.234 1492.77 236.42 1495.13 240.268C1497.26 243.847 1500.9 244.336 1502.73 248.042C1503.54 258.293 1502.97 396.759 1503.12 546.37C1506.89 546.544 1510.67 546.544 1514.46 546.385C1514.61 530.614 1514.05 423.18 1514.93 407.537C1518.09 407.331 1521.26 407.048 1524.43 406.59C1524.61 397.318 1523.52 387.572 1525.85 378.806C1531.25 378.695 1536.65 378.663 1542.06 379.043C1542.68 387.968 1542.58 396.94 1542.31 405.897C1549.25 413.528 1547.48 400.939 1547.59 460.427C1553.32 460.19 1559.06 459.891 1564.79 460.648C1565.49 471.891 1564.82 483.165 1565.02 494.41C1568.04 496.098 1571.22 496.839 1574.29 498.337C1574.28 505.575 1574.01 512.813 1574.29 520.067C1578.15 520.21 1582.03 520.193 1585.9 520.304C1585.81 510.184 1585.29 405.018 1586.33 394.828C1592.31 395.159 1598.37 394.261 1604.34 395.632C1609.2 397.84 1614.01 400.662 1619.12 400.915C1619.19 403.927 1619.27 406.94 1619.4 409.967C1622.11 409.856 1624.84 409.715 1627.58 409.589C1627.58 404.685 1627.57 399.78 1627.61 394.892C1631.58 393.836 1635.6 393.883 1639.6 394.529C1639.82 396.752 1640.06 398.961 1640.34 401.169C1644.07 401.232 1647.8 401.263 1651.55 401.263C1651.7 398.03 1651.83 394.783 1651.96 391.549C1656.03 391.549 1660.11 391.328 1664.2 391.265C1664.2 391.265 1664.83 497.228 1664.48 549.522C1665.79 549.459 1667.11 549.411 1668.47 549.38C1669.05 528.573 1668.28 325.209 1668.6 318.63C1672.93 318.141 1677.28 318.204 1681.62 318.487C1681.39 302.432 1681.28 205.187 1681.69 192.475C1689.17 191.577 1696.66 192.16 1704.15 192.618C1704.33 187.162 1704.21 181.69 1704.23 176.234C1704.08 172.118 1706.28 169.106 1706.43 165.117C1705.92 147.314 1706.07 129.494 1705.78 111.66C1706.03 106.771 1705.01 100.668 1707.5 96.9946C1717.73 79.3893 1711.81 89.7818 1713.81 13.0076C1714.81 11.7146 1715.84 10.4051 1716.89 9.11203C1717.14 34.39 1716.35 59.6995 1716.98 84.9624C1716.52 93.0208 1722.86 95.8742 1722.74 103.664C1722.83 123.707 1722.94 143.781 1722.21 163.792C1721.81 169.217 1726.11 171.062 1726 176.234C1726.13 185.159 1725.68 194.069 1725.72 203.01C1727.36 202.695 1729.02 202.38 1730.69 202.095C1730.78 196.229 1730.45 190.3 1731.04 184.496C1732.43 179.482 1736.04 178.709 1738.75 176.58C1742.95 174.33 1745.53 167.301 1757.91 171.188C1767.28 176.82 1758.9 166.194 1761.85 476.333C1771.78 476.239 1781.72 476.002 1791.65 476.806C1791.98 497.716 1791.38 518.642 1791.74 539.568C1792.71 539.82 1793.69 540.089 1794.69 540.357C1794.48 529.681 1794.52 518.99 1794.52 508.314C1795.22 508.345 1796.59 508.393 1797.28 508.408C1797.32 519.809 1797.08 531.195 1797.34 542.58C1811.65 543.809 1804.02 542.742 1814.89 538.417C1816.18 503.923 1812.7 363.877 1817.15 360.348C1821.22 359.355 1825.39 359.781 1829.51 359.339C1829.76 357.542 1830.04 355.728 1830.34 353.93C1833.46 353.504 1836.22 351.107 1838.29 347.133C1839.47 349.215 1840.66 351.296 1841.88 353.361C1859.59 351.287 1859.47 355.742 1867.26 350.429C1869.41 351.833 1871.61 353.046 1873.85 354.15C1874.45 356.027 1875.04 357.935 1875.81 359.701C1878.13 360.851 1878.46 355.947 1879.47 353.55C1880.14 353.471 1880.85 353.393 1881.58 353.313C1881.87 355.174 1882.18 357.05 1882.51 358.912C1884.21 359.258 1885.93 359.606 1887.68 359.968C1888.09 371.874 1887.92 467.945 1887.78 482.542C1889.02 482.525 1890.28 482.494 1891.56 482.447C1892.11 474.326 1889.99 464.155 1894.07 457.894C1896.85 452.579 1901.72 449.978 1902.69 442.361C1903.08 433.987 1903.56 425.109 1901.66 417.146C1902.64 415.111 1903.73 413.172 1904.53 410.869C1905.07 405.571 1904.32 399.973 1905.35 394.848C1907.6 390.827 1910.94 389.47 1913.69 386.632C1915.49 376.619 1912.57 366.164 1914.18 356.024C1915.17 348.992 1912.06 343.346 1910.72 337.164C1911.64 332.654 1912.85 327.608 1915.3 324.863C1921.51 324.626 1919.77 327.578 1919.8 580H0V296.998C1.4166 299.08 2.79645 301.461 4.61651 302.548C6.08036 301.524 7.41296 300.057 8.77332 298.732C9.74897 301.003 10.6781 303.352 11.7385 305.529C14.7314 304.803 16.5147 299.884 18.7758 296.966C22.1159 303.085 26.3575 307.248 30.6732 311.096C31.8461 315.716 31.2364 321.109 31.6211 326.045C33.01 325.462 34.5676 324.973 35.1585 322.466C38.3674 312.279 42.2993 302.045 42.252 290.076C42.627 290.549 43.3874 291.495 43.7721 291.968C44.804 303.385 47.8352 313.824 51.1566 323.822C65.87 368.818 60.3933 347.932 61.741 368.528C62.9423 368.954 64.1527 369.363 65.3533 369.758C65.9398 381.49 65.6398 448.571 65.5408 459.958C67.1456 460.384 68.7497 460.794 70.3545 461.235C71.0205 462.954 71.2927 465.303 72.3906 466.455C75.8432 466.944 79.3251 466.707 82.7875 466.818C82.8535 461.946 82.759 457.057 83.0222 452.185C83.3222 446.886 84.8333 441.966 84.8708 436.605C85.2082 426.607 83.8389 416.01 86.5783 406.643C87.3665 402.197 90.1157 400.572 92.3302 398.68C90.9594 367.4 100.223 352.971 103.187 354.02C108.404 355.14 112.636 361.668 115.273 369.017C117.234 374.962 120.733 378.683 123.145 383.998C123.952 389.959 123.68 396.171 124.083 402.227C128.155 401.36 131.806 397.212 135.991 397.764C145.852 397.575 155.733 398.143 165.566 397.103C166.176 385.245 164.252 372.077 168.071 361.369C169.451 360.139 170.989 359.572 172.463 358.783C173.034 332.498 174.807 354.567 174.977 318.114C176.141 316.553 177.314 315.008 178.477 313.463C178.159 304.111 181.733 295.454 179.894 286.15H182.277C180.495 295.454 183.976 304.159 183.675 313.494C184.819 315.056 185.974 316.601 187.128 318.162C187.146 325.858 186.414 333.868 188.047 341.28C189.014 345.854 189.051 350.789 189.923 355.393C191.2 359.761 192.823 363.861 193.648 368.576C195.582 377.453 194.089 387.042 194.934 396.188C197.493 403.75 196.461 400.736 217.706 400.682C217.744 357.601 217.463 314.519 217.829 271.45C219.592 271.167 221.357 270.898 223.121 270.615C223.318 267.808 223.515 265.016 223.712 262.226C226.602 260.949 229.492 259.703 232.438 258.867C232.804 257.102 233.16 255.335 233.517 253.584C235.197 251.724 237.702 250.588 238.105 246.804C241.117 229.468 243.984 240.047 250.434 239.471C256.505 239.171 262.726 241.222 268.61 237.768C272.579 235.671 273.827 244.202 274.239 249.06C277.204 249.391 280.188 249.549 283.172 249.595C285.696 254.878 285.199 261.705 285.143 268.013C287.01 268.013 288.878 268.013 290.745 267.998C291.017 266.011 291.28 264.04 291.543 262.053C296.45 262.526 301.47 261.264 306.322 262.652C308.94 265.742 311.557 269.134 314.964 268.88C314.417 308.818 314.377 470.303 314.766 489.107C316.409 489.485 318.069 489.848 319.73 490.211C320.246 491.63 320.762 493.049 321.288 494.468C325.604 496.565 329.901 499.861 334.518 498.347C334.452 441.987 334.874 385.629 334.471 329.264C337.567 326.347 340.56 323.114 343.404 319.535C346.453 323.824 350.056 326.663 353.481 329.974C354.205 332.091 353.767 415.738 353.762 417.004C358.904 416.421 364.065 416.721 369.226 416.815C369.31 422.145 368.963 427.586 369.582 432.868C370.623 435.628 372.782 437.551 372.678 441.21C372.884 447.755 372.697 454.315 372.941 460.858C378.974 461.284 385.008 461.488 391.041 461.362C390.891 430.801 391.144 400.241 390.891 369.68C394.522 369.569 398.163 369.537 401.804 369.554C402.057 361.132 401.504 352.712 401.747 344.291C403.127 343.833 404.515 343.361 405.913 342.887C404.645 199.111 407.147 281.065 408.099 212.495C415.23 207.718 423.656 207.197 430.647 212.905C431.557 221.673 430.797 230.63 431.126 239.476C431.257 243.813 432.777 247.598 432.983 251.918C433.321 260.89 432.88 269.895 433.096 278.883C433.208 285.806 435.225 292.177 435.291 299.132C435.639 314.065 435.188 329.015 435.414 343.948C436.83 343.869 438.248 343.791 439.673 343.68C439.795 336.662 439.879 329.63 439.852 322.612C442.226 322.375 444.599 322.171 446.974 321.949C447.133 318.244 447.058 314.459 447.583 310.832C452.182 295.753 450.573 332.685 450.783 164.863C453.589 163.318 456.273 161.173 459.134 159.928C461.18 159.817 463.15 161.269 465.215 161.047C470.732 159.628 476.249 162.166 481.795 161.11C482.001 164.374 482.264 167.623 482.583 170.856C483.465 168.743 484.29 166.551 485.06 164.296C487.959 164.185 490.868 164.233 493.786 164.154C493.917 147.423 492.998 130.676 493.908 113.961C495.728 112.716 497.558 111.501 499.407 110.334C499.707 107.464 499.997 104.594 500.336 101.755C504.305 100.367 508.217 98.5851 512.158 97.0084C513.136 64.9172 512.029 32.7163 512.93 0.60999L512.932 0.598649Z" fill="#EEEEEE"/>
</svg>
