<svg width="2560" height="651" viewBox="0 0 2560 651" fill="none" xmlns="http://www.w3.org/2000/svg">
<path d="M683.909 0.671932C685.123 0.459744 686.336 0.229163 687.563 0C687.601 19.9471 687.701 39.8942 687.588 59.8243C687.225 66.8859 688.952 73.7014 689.002 80.6739C687.538 90.3737 687.375 100.286 688.001 110.126C693.543 110.427 698.911 112.427 704.29 114.197C704.678 118.179 704.941 122.161 705.253 126.161C707.768 127.86 710.283 129.524 712.797 131.277C713.949 161.4 709.627 461.908 716.213 490.652C719.829 504.706 717.564 519.946 717.952 534.547C719.529 534.53 721.118 534.512 722.718 534.493C723.441 517.602 726.391 535.164 726.159 467.943C729.487 467.5 732.814 467.092 736.155 466.616C736.418 463.43 736.718 460.261 737.056 457.111C740.384 457.182 743.711 457.2 747.052 457.182C747.978 463.129 750.917 467.235 755.121 468.51C755.496 483.183 754.883 497.874 755.534 512.546C756.372 512.527 758.074 512.492 758.912 512.457C758.874 472.933 758.912 433.411 759.161 393.887C772.811 393.073 786.498 393.197 800.147 394.153C800.651 427.992 797.843 426.798 806.315 433.942C808.243 224.668 801.409 271.137 816.299 253.454C817.287 238.003 815.562 222.375 816.875 206.94C818.789 200.604 821.78 194.957 823.531 188.461C824.857 192.019 826.17 195.612 827.509 199.187C834.94 198.833 842.373 199.062 849.804 199.257C849.979 202.231 850.154 205.223 850.342 208.196C851.418 208.178 852.507 208.161 853.594 208.142C853.944 205.009 854.32 201.877 854.733 198.744C856.522 198.708 858.337 198.69 860.151 198.638C860.936 218.284 859.686 312.052 860.389 350.932C863.666 351.057 866.957 351.003 870.248 350.915C870.411 382.934 869.672 414.971 870.573 446.953C874.513 447.042 878.455 446.953 882.408 446.864C882.571 452.634 882.708 458.404 882.858 464.174C886.274 464.351 889.702 464.422 893.13 464.492C888.758 444.862 892.907 462.457 890.766 367.781C892.554 326.86 889.615 285.798 891.453 244.929C910.258 244.504 929.074 244.823 947.891 244.592C949.304 269.371 947.328 294.204 948.015 319.001C953.295 319.851 958.274 317.266 963.341 315.744C985.789 322.95 980.446 318.255 980.581 353.852C989.626 353.48 998.684 353.551 1007.72 354.453C1007.79 357.09 1007.89 359.728 1007.99 362.365C1019.58 373.268 1013.44 370.386 1025.53 371.94C1025.7 443.419 1024.08 445.482 1028.45 446.473C1029.37 411.252 1028.2 375.976 1028.78 340.754C1037.7 339.161 1045.7 332.171 1054.63 331.037C1064.78 334.011 1075.15 333.073 1085.43 333.268C1085.88 362.738 1085.16 392.225 1085.86 421.677C1092.9 420.016 1086.18 292.273 1089.11 255.902C1090.11 255.565 1115.53 246.978 1118.55 244.114C1119.9 240.645 1120.85 236.911 1121.98 233.282C1123.33 235.99 1124.69 238.68 1126.09 241.371C1141.53 239.425 1156.98 241.07 1172.45 241.282C1173.32 289.584 1172.07 337.958 1172.75 386.263C1176.79 386.493 1180.84 386.635 1184.89 386.918C1185.13 390.299 1185.37 393.697 1185.63 397.096C1195 397.432 1204.39 397.503 1213.77 397.113C1213.74 385.184 1213.23 373.254 1213.84 361.342C1219.87 361.502 1225.93 361.643 1231.97 361.095C1232.09 351.944 1231.43 342.616 1233.09 333.66C1234.99 323.43 1234.69 312.561 1237.13 302.491C1239.8 295.449 1239.76 302.659 1250.19 265.818C1252.75 257.411 1251.53 247.994 1252.93 239.234C1253.73 234.243 1254.38 229.215 1254.88 224.136C1256.84 227.799 1258.02 232.118 1257.74 236.791C1256.71 264.586 1268.04 286.566 1272.52 299.8C1277.07 321.256 1276.33 315.567 1276.2 431.804C1278.73 431.839 1281.27 431.858 1283.83 431.858C1284.18 396.884 1284.16 361.909 1284.14 326.935C1283.98 319.749 1286.42 313.112 1286.55 305.961C1286.72 299.041 1286.33 291.961 1287.78 285.234C1290.05 275.27 1288.97 264.703 1289.5 254.454C1289.4 250.1 1292.21 247.445 1293.69 244.047C1297.16 237.587 1295.8 228.313 1299.51 222.1C1304.37 213.993 1303.64 202.577 1305.54 192.842C1308.17 180.913 1306.68 168.293 1306.88 156.028C1307.13 156.046 1307.64 156.081 1307.89 156.098C1306.96 217.885 1310.87 200.601 1303.14 218.525C1306.99 219.588 1310.89 220.366 1314.82 220.879C1315.91 227.18 1316.96 233.482 1318.15 239.747C1319.2 245.057 1323.45 248.437 1323.1 254.402C1323.14 260.403 1323.55 266.42 1324.93 272.155C1336.28 268.491 1348.1 269.093 1359.63 270.332C1366.33 285.093 1375.65 297.093 1385.37 307.855C1385.42 308.599 1385.47 431.006 1385.47 431.752C1390.36 431.929 1395.47 430.602 1400.18 433.132C1407.29 437.008 1415.03 434.318 1422.45 435.309C1424.32 431.858 1426.24 428.495 1428.32 425.256C1431.54 428.814 1435 432.459 1439.33 432.035C1439.73 312.262 1434.8 292.177 1457.04 285.993C1457.03 281.94 1457.01 277.886 1457.02 273.833C1459.17 271.886 1461.32 269.832 1463.71 268.416C1466.98 272.681 1464.56 279.851 1466.14 285.161C1467.1 288.17 1468.38 290.948 1469.37 293.958C1470.94 298.383 1471.16 304.702 1475.45 305.322C1476.82 302.843 1477.32 298.171 1480.14 298.277C1499.87 296.547 1487.51 300.463 1510.47 305.322C1510.48 314.419 1510.45 323.534 1510.49 332.632C1515.55 333.197 1520.61 333.393 1525.69 333.463C1526.19 358.987 1525.58 384.527 1525.95 410.068C1528.42 411.465 1530.88 412.9 1533.36 414.368C1533.95 426.351 1533.71 438.369 1534.02 450.386C1535.44 450.368 1536.86 450.351 1538.3 450.351C1544.65 411.464 1544.39 417.835 1573.88 418.279C1575.62 418.545 1578.02 418.102 1578.8 420.987C1583.22 436.386 1588.6 451.767 1588.81 468.776C1588.7 474.883 1593.76 478.263 1593.36 484.493C1593.43 522.424 1592.89 560.372 1593.64 598.301C1597.87 598.461 1602.11 598.461 1606.36 598.301C1606.61 581.77 1606.01 565.202 1606.65 548.689C1611.49 548.37 1616.34 548.281 1621.2 548.175C1621.36 542.546 1621.56 536.936 1621.85 531.325C1627.35 531.378 1632.86 531.36 1638.38 531.466C1638.91 617.518 1636.77 619.166 1641.54 619.875C1642.53 593.38 1641.73 416.273 1641.75 416.089C1644.9 408.161 1652.1 411.488 1657.27 409.647C1669.67 403.924 1682.13 407.255 1685.89 410.868C1688.8 413.134 1690.42 417.381 1692.07 421.275C1704.82 420.125 1717.57 422.161 1730.33 421.77C1732.21 431.057 1731.36 480.162 1731.32 481.578C1739.55 480.994 1747.8 481.542 1756.04 481.135C1756.68 475.365 1757.38 469.613 1758.38 463.949C1762.53 471.029 1761.73 481.631 1766.47 488.163C1772.87 500.109 1770.51 480.945 1771.24 591.334C1778.4 592.449 1784.72 586.52 1791.82 586.732C1792.47 559.253 1790.83 457.705 1791.73 414.068C1799.04 413.431 1806.37 413.962 1813.65 415.218C1816.09 410.899 1818.46 406.456 1820.68 401.873C1825.19 406.121 1830.47 407.926 1835.87 407.714C1836.24 410.032 1836.62 412.351 1837.05 414.688C1842.57 414.777 1848.09 415.166 1853.61 415.891C1854.25 425.839 1854.18 435.822 1853.91 445.786C1862.76 445.857 1870.4 453.361 1879.21 454.211C1880.89 457.557 1883.13 460.176 1885.76 461.946C1887.09 474.584 1886.38 487.328 1886.4 500.035C1897.29 499.328 1908.17 498.176 1919.08 499.15C1919.7 474.909 1918.68 363.846 1919.38 307.912C1926.75 307.469 1934.14 307.593 1941.54 307.54C1941.46 296.991 1942.39 286.495 1942.2 275.963C1950.25 275.521 1958.3 275.893 1966.36 275.733C1969.39 261.233 1966.08 263.72 1978.71 261.573C1978.91 233.04 1977.98 204.333 1980.12 175.924C1982.86 184.174 1982.11 232.975 1982.25 260.953C1986.7 261.785 1990.35 265.361 1993.51 269.68C1996.35 273.697 2001.2 274.246 2003.64 278.406C2004.72 289.911 2003.96 445.328 2004.15 613.253C2009.18 613.448 2014.23 613.448 2019.28 613.27C2019.48 595.568 2018.73 474.983 2019.91 457.425C2024.12 457.194 2028.35 456.876 2032.58 456.363C2032.82 445.956 2031.37 435.017 2034.47 425.177C2041.66 425.052 2048.87 425.017 2056.07 425.443C2056.91 435.461 2056.77 445.531 2056.41 455.585C2065.67 464.15 2063.31 450.02 2063.46 516.79C2071.09 516.524 2078.74 516.188 2086.39 517.037C2087.31 529.657 2086.43 542.312 2086.69 554.933C2090.72 556.827 2094.96 557.658 2099.05 559.34C2099.04 567.464 2098.67 575.588 2099.05 583.731C2104.2 583.891 2109.37 583.872 2114.54 583.997C2114.42 572.638 2113.72 454.597 2115.1 443.16C2123.08 443.532 2131.16 442.524 2139.12 444.063C2145.6 446.541 2152.02 449.708 2158.83 449.993C2158.93 453.374 2159.03 456.755 2159.2 460.152C2162.82 460.028 2166.46 459.87 2170.11 459.728C2170.11 454.224 2170.1 448.718 2170.15 443.233C2175.44 442.047 2180.79 442.099 2186.14 442.825C2186.43 445.32 2186.75 447.799 2187.13 450.277C2192.09 450.348 2197.07 450.383 2202.06 450.383C2202.26 446.755 2202.44 443.109 2202.61 439.48C2208.04 439.48 2213.49 439.232 2218.93 439.161C2218.93 439.161 2219.78 558.096 2219.3 616.791C2221.06 616.72 2222.82 616.667 2224.62 616.631C2225.41 593.278 2224.37 365.019 2224.8 357.634C2230.58 357.086 2236.37 357.156 2242.16 357.475C2241.85 339.454 2241.71 230.305 2242.25 216.037C2252.22 215.029 2262.22 215.683 2272.2 216.197C2272.44 210.073 2272.28 203.931 2272.3 197.807C2272.11 193.187 2275.04 189.806 2275.24 185.329C2274.56 165.347 2274.76 145.346 2274.38 125.328C2274.7 119.841 2273.35 112.992 2276.67 108.868C2290.31 89.1077 2282.41 100.772 2285.07 14.6C2286.41 13.1486 2287.79 11.6788 2289.19 10.2275C2289.52 38.5998 2288.46 67.0076 2289.3 95.363C2288.69 104.408 2297.15 107.61 2296.98 116.354C2297.11 138.85 2297.26 161.382 2296.28 183.843C2295.75 189.931 2301.48 192.002 2301.34 197.807C2301.5 207.825 2300.9 217.825 2300.96 227.862C2303.14 227.508 2305.36 227.154 2307.58 226.835C2307.71 220.25 2307.27 213.596 2308.06 207.081C2309.91 201.453 2314.73 200.586 2318.33 198.196C2323.94 195.67 2327.37 187.781 2343.88 192.143C2356.38 198.465 2345.19 186.539 2349.13 534.643C2362.37 534.537 2375.63 534.271 2388.87 535.174C2389.3 558.643 2388.5 582.131 2388.99 605.619C2390.28 605.902 2391.58 606.203 2392.92 606.504C2392.64 594.521 2392.69 582.521 2392.69 570.538C2393.62 570.574 2395.46 570.627 2396.37 570.644C2396.42 583.441 2396.11 596.22 2396.46 608.999C2415.53 610.379 2405.36 609.181 2419.86 604.327C2421.57 565.61 2416.94 408.421 2422.87 404.46C2428.3 403.345 2433.85 403.824 2439.35 403.327C2439.69 401.31 2440.05 399.274 2440.45 397.256C2444.61 396.778 2448.29 394.087 2451.06 389.627C2452.63 391.964 2454.21 394.299 2455.84 396.618C2479.45 394.289 2479.3 399.29 2489.68 393.326C2492.54 394.902 2495.48 396.264 2498.47 397.503C2499.26 399.61 2500.05 401.751 2501.08 403.733C2504.18 405.025 2504.62 399.52 2505.96 396.83C2506.86 396.741 2507.79 396.653 2508.77 396.564C2509.16 398.652 2509.57 400.758 2510.01 402.847C2512.29 403.236 2514.58 403.627 2516.9 404.033C2517.45 417.397 2517.23 525.228 2517.04 541.611C2518.69 541.593 2520.37 541.558 2522.08 541.505C2522.81 532.39 2519.99 520.974 2525.42 513.946C2529.14 507.981 2535.63 505.061 2536.92 496.512C2537.44 487.113 2538.08 477.149 2535.54 468.21C2536.86 465.927 2538.31 463.75 2539.37 461.165C2540.1 455.218 2539.1 448.935 2540.46 443.183C2543.46 438.669 2547.92 437.147 2551.58 433.961C2553.99 422.722 2550.09 410.987 2552.23 399.607C2553.56 391.713 2549.42 385.376 2547.63 378.437C2548.86 373.376 2550.47 367.712 2553.74 364.631C2562.01 364.365 2559.69 367.678 2559.73 651H0V333.355C1.8888 335.691 3.7286 338.364 6.15535 339.584C8.10714 338.434 9.88395 336.788 11.6978 335.301C12.9986 337.85 14.2375 340.487 15.6513 342.93C19.6419 342.115 22.0197 336.594 25.0343 333.319C29.4879 340.187 35.1433 344.859 40.8977 349.178C42.4615 354.364 41.6486 360.417 42.1615 365.958C44.0133 365.303 46.0901 364.754 46.878 361.94C51.1566 350.506 56.399 339.02 56.336 325.586C56.836 326.116 57.8499 327.178 58.3628 327.709C59.7387 340.524 63.7802 352.241 68.2088 363.463C87.8267 413.966 80.5245 390.524 82.3213 413.641C83.9231 414.119 85.5369 414.579 87.1378 415.021C87.9197 428.19 87.5197 503.483 87.3877 516.263C89.5275 516.742 91.6663 517.201 93.8061 517.696C94.694 519.626 95.0569 522.263 96.5208 523.556C101.124 524.104 105.767 523.839 110.383 523.963C110.471 518.494 110.345 513.007 110.696 507.538C111.096 501.591 113.111 496.069 113.161 490.051C113.611 478.829 111.785 466.935 115.438 456.422C116.489 451.431 120.154 449.608 123.107 447.483C121.279 412.375 133.631 396.179 137.582 397.357C144.539 398.614 150.181 405.941 153.697 414.19C156.311 420.862 160.978 425.04 164.194 431.005C165.269 437.696 164.907 444.668 165.444 451.465C170.874 450.492 175.741 445.837 181.321 446.456C194.469 446.244 207.644 446.881 220.755 445.714C221.568 432.404 219.003 417.624 224.095 405.606C225.934 404.225 227.986 403.589 229.951 402.703C230.713 373.201 233.076 397.971 233.303 357.056C234.855 355.303 236.419 353.569 237.97 351.835C237.545 341.338 242.311 331.622 239.859 321.179H243.036C240.659 331.622 245.301 341.392 244.9 351.87C246.426 353.623 247.965 355.357 249.504 357.11C249.529 365.747 248.553 374.738 250.729 383.057C252.018 388.191 252.068 393.73 253.231 398.898C254.933 403.801 257.097 408.403 258.198 413.695C260.775 423.659 258.786 434.421 259.911 444.687C263.324 453.174 261.948 449.792 290.275 449.731C290.325 401.376 289.95 353.02 290.438 304.679C292.79 304.361 295.143 304.06 297.494 303.742C297.757 300.591 298.02 297.458 298.282 294.326C302.136 292.893 305.99 291.494 309.917 290.556C310.405 288.574 310.88 286.591 311.356 284.626C313.596 282.538 316.935 281.264 317.473 277.016C321.49 257.558 325.313 269.432 333.913 268.786C342.007 268.449 350.302 270.751 358.146 266.875C363.438 264.521 365.102 274.096 365.652 279.548C369.606 279.92 373.584 280.097 377.563 280.149C380.929 286.079 380.266 293.742 380.191 300.822C382.68 300.822 385.17 300.822 387.66 300.805C388.023 298.574 388.373 296.362 388.724 294.132C395.267 294.663 401.96 293.247 408.429 294.804C411.919 298.273 415.41 302.079 419.951 301.795C419.223 346.622 419.17 527.874 419.688 548.98C421.878 549.404 424.092 549.812 426.307 550.219C426.995 551.812 427.683 553.405 428.384 554.998C434.139 557.352 439.868 561.051 446.024 559.352C445.936 496.093 446.499 432.835 445.961 369.571C450.089 366.296 454.08 362.668 457.871 358.65C461.937 363.464 466.742 366.651 471.308 370.367C472.274 372.744 471.69 466.63 471.683 468.051C478.539 467.397 485.42 467.733 492.301 467.839C492.414 473.822 491.951 479.928 492.776 485.857C494.165 488.955 497.042 491.113 496.904 495.22C497.179 502.566 496.929 509.929 497.254 517.273C505.298 517.752 513.344 517.981 521.388 517.839C521.188 483.537 521.526 449.236 521.188 414.934C526.029 414.809 530.884 414.774 535.738 414.792C536.076 405.34 535.338 395.889 535.663 386.437C537.502 385.923 539.354 385.393 541.218 384.861C539.527 223.485 542.862 315.471 544.132 238.508C553.64 233.145 564.875 232.561 574.196 238.968C575.41 248.809 574.396 258.862 574.834 268.791C575.009 273.659 577.036 277.907 577.311 282.756C577.761 292.827 577.173 302.934 577.461 313.023C577.611 320.793 580.3 327.944 580.388 335.749C580.851 352.511 580.251 369.291 580.551 386.052C582.44 385.963 584.33 385.875 586.231 385.751C586.394 377.874 586.506 369.981 586.469 362.105C589.634 361.839 592.799 361.609 595.965 361.361C596.178 357.202 596.078 352.954 596.778 348.882C602.909 331.957 600.763 373.41 601.044 185.045C604.785 183.311 608.364 180.903 612.179 179.505C614.907 179.381 617.534 181.011 620.286 180.762C627.642 179.169 634.999 182.018 642.393 180.832C642.668 184.496 643.019 188.143 643.444 191.771C644.62 189.399 645.721 186.939 646.746 184.408C650.612 184.284 654.491 184.338 658.381 184.249C658.556 165.47 657.33 146.673 658.544 127.911C660.971 126.514 663.411 125.15 665.875 123.84C666.275 120.619 666.663 117.398 667.114 114.211C672.407 112.653 677.623 110.653 682.878 108.884C684.181 72.864 682.706 36.7213 683.906 0.684662L683.909 0.671932Z" fill="black"/>
</svg>
